<svg version="1.0" id="AOK-Logo" xmlns="http://www.w3.org/2000/svg" xmlns:xlink="http://www.w3.org/1999/xlink" x="0px" y="0px"
	 width="147.968px" height="81.334px" viewBox="0 0 147.968 81.334" enable-background="new 0 0 147.968 81.334"
	 xml:space="preserve">
<polygon fill="#009640" points="0,0 0,81.334 147.968,81.334 147.968,0 0,0 "/>
<g>
	<polygon fill="#FFFFFF" points="105.44,32.119 122.396,16.045 116.772,16.042 101.908,29.968 101.908,16.113 97.824,16.113 
		97.824,51.541 101.939,51.541 101.939,34.687 117.245,51.518 122.886,51.518 105.348,32.219 	"/>
	<path fill="#FFFFFF" d="M59.073,33.795c0-10.251,8.312-18.563,18.563-18.563c10.251,0,18.563,8.312,18.563,18.563
		c0,10.252-8.312,18.563-18.563,18.563C67.385,52.358,59.073,44.047,59.073,33.795L59.073,33.795z M77.637,48.29
		c8.004,0,14.495-6.492,14.495-14.495s-6.491-14.492-14.495-14.492c-8.005,0-14.493,6.489-14.493,14.492S69.632,48.29,77.637,48.29
		L77.637,48.29z"/>
	<polygon fill="#FFFFFF" points="53.262,37.69 53.262,51.543 57.343,51.543 57.343,16.118 53.265,16.112 25.591,51.533 
		30.741,51.533 53.257,22.716 53.262,37.69 	"/>
	<polygon fill="#FFFFFF" points="35.74,42.7 55.486,42.7 55.486,38.983 35.74,38.983 35.74,42.7 	"/>
	<path fill="#FFFFFF" d="M80.697,24.798c0.631,0.712,1.014,1.648,1.014,2.675c0,2.223-1.803,4.025-4.025,4.025h0.006
		c-2.223,0-4.024-1.803-4.024-4.025c0-1.026,0.385-1.963,1.017-2.675l3.012-3.195L80.697,24.798L80.697,24.798z M77.695,23.114
		l-2.161,2.294c-0.182,0.189-0.339,0.399-0.465,0.633c-0.231,0.424-0.364,0.912-0.364,1.432c0,1.647,1.336,2.984,2.984,2.984
		s2.986-1.337,2.986-2.984c0-0.52-0.133-1.008-0.366-1.432c-0.126-0.233-0.284-0.443-0.467-0.633L77.695,23.114L77.695,23.114z"/>
	<path fill="#FFFFFF" d="M69.643,29.418c0.934-0.196,1.936-0.067,2.828,0.439c1.933,1.099,2.608,3.557,1.508,5.489l0.004-0.006
		c-1.101,1.934-3.558,2.608-5.489,1.508c-0.893-0.506-1.518-1.303-1.822-2.205l-1.289-4.2L69.643,29.418L69.643,29.418z
		 M66.697,31.193l0.922,3.013c0.075,0.251,0.182,0.491,0.322,0.716c0.254,0.415,0.613,0.77,1.063,1.027
		c1.433,0.814,3.257,0.314,4.072-1.119c0.813-1.434,0.312-3.257-1.119-4.071c-0.452-0.256-0.94-0.384-1.426-0.391
		c-0.262-0.004-0.526,0.025-0.778,0.09L66.697,31.193L66.697,31.193z"/>
	<path fill="#FFFFFF" d="M89.926,30.443l-1.291,4.2c-0.303,0.902-0.929,1.699-1.821,2.205c-1.934,1.101-4.389,0.426-5.489-1.508
		l0.006,0.006c-1.101-1.933-0.428-4.391,1.508-5.489c0.891-0.507,1.896-0.636,2.827-0.439L89.926,30.443L89.926,30.443z
		 M85.555,30.458c-0.253-0.064-0.514-0.094-0.78-0.09c-0.483,0.007-0.975,0.135-1.425,0.391c-1.434,0.814-1.936,2.638-1.118,4.071
		c0.816,1.434,2.637,1.934,4.071,1.119c0.45-0.258,0.811-0.612,1.064-1.027c0.136-0.225,0.244-0.465,0.319-0.716l0.925-3.013
		L85.555,30.458L85.555,30.458z"/>
	<polygon fill="#FFFFFF" points="86.363,43.678 87.199,42.69 78.126,42.69 78.126,37.914 82.252,35.556 81.763,34.701 
		78.126,36.782 78.126,31.071 77.147,31.071 77.147,36.782 73.511,34.701 73.022,35.556 77.147,37.914 77.147,42.69 68.076,42.69 
		68.91,43.678 86.363,43.678 	"/>
	<path fill="#FFFFFF" d="M24.646,56.585h1.302c0.581,0,1.494,0.177,1.494,2.377c0,1.224-0.371,2.502-1.477,2.502h-1.319V56.585
		L24.646,56.585z M23.317,62.739h2.812c2.136,0,2.681-2.293,2.681-3.891c0-1.413-0.447-3.538-2.626-3.538h-2.866V62.739
		L23.317,62.739z"/>
	<polygon fill="#FFFFFF" points="31.129,57.269 31.129,62.739 29.871,62.739 29.871,57.269 31.129,57.269 	"/>
	<polygon fill="#FFFFFF" points="31.129,56.672 29.871,56.672 29.871,55.325 31.129,55.325 31.129,56.672 	"/>
	<polygon fill="#FFFFFF" points="87.244,57.269 87.244,62.739 85.989,62.739 85.989,57.269 87.244,57.269 	"/>
	<polygon fill="#FFFFFF" points="87.244,56.672 85.989,56.672 85.989,55.325 87.244,55.325 87.244,56.672 	"/>
	<path fill="#FFFFFF" d="M33.367,59.435c0.072-0.737,0.388-1.181,0.98-1.181c0.404,0,0.898,0.274,0.971,1.181H33.367L33.367,59.435z
		 M35.265,61.124c-0.099,0.396-0.458,0.602-0.809,0.602c-1.017,0-1.089-0.934-1.124-1.354h3.28v-0.256
		c0-2.53-1.302-3.045-2.247-3.045c-2.094,0-2.292,2.131-2.292,2.797c0,2.272,1.033,3.019,2.383,3.019
		c0.817,0,1.769-0.436,2.103-1.763H35.265L35.265,61.124z"/>
	<path fill="#FFFFFF" d="M43.412,58.725h2.718v4.015h-0.905l-0.138-0.942c-0.344,0.455-0.844,1.129-2.035,1.129
		c-1.575,0-2.999-1.281-2.999-3.889c0-2.021,0.988-3.925,3.19-3.915c2.002,0,2.794,1.471,2.867,2.492h-1.367
		c0-0.29-0.463-1.216-1.424-1.216c-0.976,0-1.879,0.761-1.879,2.656c0,2.029,0.977,2.558,1.907,2.558
		c0.298,0,1.295-0.135,1.576-1.634h-1.512V58.725L43.412,58.725z"/>
	<path fill="#FFFFFF" d="M48.56,59.435c0.072-0.737,0.391-1.181,0.989-1.181c0.411,0,0.91,0.274,0.982,1.181H48.56L48.56,59.435z
		 M50.349,61.124c-0.099,0.396-0.463,0.602-0.817,0.602c-1.027,0-1.103-0.934-1.138-1.354h3.319v-0.256
		c0-2.53-1.319-3.045-2.272-3.045c-2.118,0-2.32,2.131-2.32,2.797c0,2.272,1.047,3.019,2.411,3.019c0.827,0,1.791-0.436,2.128-1.763
		H50.349L50.349,61.124z"/>
	<path fill="#FFFFFF" d="M55.57,58.906c-0.055-0.354-0.165-0.728-0.863-0.728c-0.694,0-0.787,0.3-0.787,0.538
		c0,0.875,3.038,0.241,3.038,2.271c0,1.605-1.365,1.898-2.125,1.898c-1.108,0-2.301-0.438-2.337-1.908h1.31
		c0,0.463,0.257,0.805,1.065,0.805c0.657,0,0.814-0.361,0.814-0.568c0-0.92-3.003-0.227-3.003-2.289
		c0-0.811,0.441-1.851,1.953-1.851c0.953,0,2.073,0.271,2.172,1.831H55.57L55.57,58.906z"/>
	<path fill="#FFFFFF" d="M62.374,62.739h-1.22v-0.771h-0.018c-0.29,0.589-0.797,0.921-1.468,0.921c-0.954,0-1.646-0.62-1.646-2.031
		v-3.635h1.273v3.428c0,0.853,0.435,1.02,0.824,1.02c0.417,0,0.978-0.272,0.978-1.258v-3.189h1.275V62.739L62.374,62.739z"/>
	<path fill="#FFFFFF" d="M68.082,62.739H66.81v-3.356c0-0.405-0.02-1.091-0.832-1.091c-0.57,0-1.01,0.435-1.01,1.277v3.17h-1.271
		v-5.517h1.218v0.801h0.018c0.176-0.33,0.539-0.952,1.466-0.952c0.947,0,1.685,0.63,1.685,1.843V62.739L68.082,62.739z"/>
	<path fill="#FFFFFF" d="M70.415,60.028c0-0.878,0.272-1.701,1.085-1.701c0.874,0,1.091,0.896,1.091,1.781
		c0,0.824-0.317,1.598-1.128,1.598C70.643,61.706,70.415,60.685,70.415,60.028L70.415,60.028z M73.81,55.311h-1.272v2.624h-0.019
		c-0.199-0.353-0.583-0.859-1.403-0.859c-1.063,0-2.01,0.933-2.01,2.849c0,1.521,0.599,2.965,2.038,2.965
		c0.527,0,1.092-0.217,1.404-0.833h0.018v0.682h1.244V55.311L73.81,55.311z"/>
	<path fill="#FFFFFF" d="M79.463,62.739H78.19v-3.356c0-0.405-0.02-1.091-0.836-1.091c-0.566,0-1.005,0.435-1.005,1.277v3.17h-1.274
		v-7.429h1.274v2.619h0.02c0.164-0.45,0.713-0.858,1.407-0.858c0.949,0,1.687,0.63,1.687,1.843V62.739L79.463,62.739z"/>
	<path fill="#FFFFFF" d="M81.7,59.435c0.073-0.737,0.392-1.181,0.994-1.181c0.407,0,0.908,0.274,0.979,1.181H81.7L81.7,59.435z
		 M83.619,61.124c-0.1,0.396-0.462,0.602-0.817,0.602c-1.028,0-1.102-0.934-1.136-1.354h3.316v-0.256
		c0-2.53-1.315-3.045-2.272-3.045c-2.117,0-2.319,2.131-2.319,2.797c0,2.272,1.049,3.019,2.411,3.019
		c0.827,0,1.79-0.436,2.125-1.763H83.619L83.619,61.124z"/>
	<path fill="#FFFFFF" d="M90.062,57.223h0.79v1.031h-0.79v2.991c0,0.319,0.009,0.443,0.526,0.443c0.081,0,0.172-0.009,0.264-0.019
		v1.102c-0.203,0.01-0.402,0.02-0.601,0.02h-0.164c-1.099,0-1.3-0.477-1.3-1.194v-3.343h-0.654v-1.031h0.654v-1.49h1.274V57.223
		L90.062,57.223z"/>
	<path fill="#FFFFFF" d="M94.607,58.906c-0.055-0.354-0.164-0.728-0.864-0.728c-0.692,0-0.783,0.3-0.783,0.538
		c0,0.875,3.037,0.241,3.037,2.271c0,1.605-1.364,1.898-2.13,1.898c-1.107,0-2.296-0.438-2.334-1.908h1.313
		c0,0.463,0.255,0.805,1.062,0.805c0.658,0,0.813-0.361,0.813-0.568c0-0.92-3.004-0.227-3.004-2.289
		c0-0.811,0.445-1.851,1.955-1.851c0.953,0,2.072,0.271,2.176,1.831H94.607L94.607,58.906z"/>
	<polygon fill="#FFFFFF" points="98.282,62.739 97.009,62.739 97.009,55.311 98.282,55.311 98.282,59.315 99.883,57.223 
		101.446,57.223 99.737,59.357 101.492,62.739 99.968,62.739 98.811,60.372 98.282,60.996 98.282,62.739 	"/>
	<path fill="#FFFFFF" d="M105.197,60.752c0,0.688-0.573,1.103-1.135,1.103c-0.246,0-0.591-0.152-0.591-0.665
		c0-0.603,0.391-0.737,0.862-0.833c0.529-0.096,0.736-0.187,0.863-0.302V60.752L105.197,60.752z M106.219,62.883
		c0.405,0,0.697-0.151,0.697-0.151V61.76c-0.435,0-0.48-0.269-0.48-0.438s0-2.65,0-2.65c0-1.359-1.238-1.597-1.921-1.597
		c-0.99,0-2.016,0.237-2.159,1.924h1.225c0.038-0.319,0.146-0.767,0.783-0.767c0.325,0,0.834,0.031,0.834,0.642
		c0,0.314-0.244,0.405-0.443,0.438l-1.146,0.198c-0.811,0.134-1.409,0.684-1.409,1.761c0,1.152,0.746,1.618,1.474,1.618
		c0.816,0,1.228-0.408,1.516-0.741C105.188,62.147,105.399,62.883,106.219,62.883L106.219,62.883z"/>
	<path fill="#FFFFFF" d="M110.465,58.906c-0.056-0.354-0.166-0.728-0.866-0.728c-0.692,0-0.787,0.3-0.787,0.538
		c0,0.875,3.041,0.241,3.041,2.271c0,1.605-1.366,1.898-2.128,1.898c-1.107,0-2.299-0.438-2.335-1.908h1.309
		c0,0.463,0.257,0.805,1.066,0.805c0.658,0,0.812-0.361,0.812-0.568c0-0.92-3.002-0.227-3.002-2.289
		c0-0.811,0.445-1.851,1.953-1.851c0.956,0,2.074,0.271,2.174,1.831H110.465L110.465,58.906z"/>
	<path fill="#FFFFFF" d="M115.655,58.906c-0.057-0.354-0.168-0.728-0.866-0.728c-0.691,0-0.787,0.3-0.787,0.538
		c0,0.875,3.04,0.241,3.04,2.271c0,1.605-1.365,1.898-2.127,1.898c-1.105,0-2.3-0.438-2.334-1.908h1.308
		c0,0.463,0.258,0.805,1.066,0.805c0.656,0,0.812-0.361,0.812-0.568c0-0.92-3.001-0.227-3.001-2.289c0-0.811,0.441-1.851,1.95-1.851
		c0.957,0,2.076,0.271,2.176,1.831H115.655L115.655,58.906z"/>
	<path fill="#FFFFFF" d="M119.024,59.435c0.073-0.737,0.391-1.181,0.992-1.181c0.408,0,0.908,0.274,0.979,1.181H119.024
		L119.024,59.435z M120.94,61.124c-0.098,0.396-0.462,0.602-0.815,0.602c-1.027,0-1.101-0.934-1.139-1.354h3.32v-0.256
		c0-2.53-1.318-3.045-2.273-3.045c-2.119,0-2.319,2.131-2.319,2.797c0,2.272,1.046,3.019,2.411,3.019
		c0.825,0,1.79-0.436,2.125-1.763H120.94L120.94,61.124z"/>
	<polygon fill="#FFFFFF" points="124.642,62.737 123.275,62.737 123.275,61.219 124.642,61.219 124.642,62.737 	"/>
</g>
</svg>
